/* XPM */
static char * favicon_xpm[] = {
"32 32 109 2",
"  	c None",
". 	c #A1A7B0",
"+ 	c #9FA5AD",
"@ 	c #A0A5AD",
"# 	c #9FA4AD",
"$ 	c #A0A4AD",
"% 	c #A9ADB5",
"& 	c #ADB1B8",
"* 	c #ABAFB6",
"= 	c #A1A5AC",
"- 	c #9CA0A6",
"; 	c #91959B",
"> 	c #7A7E84",
", 	c #29292A",
"' 	c #2F2F31",
") 	c #343435",
"! 	c #353536",
"~ 	c #2F2F30",
"{ 	c #2A2A2A",
"] 	c #252525",
"^ 	c #212122",
"/ 	c #1E1E1F",
"( 	c #19191A",
"_ 	c #989DA4",
": 	c #141414",
"< 	c #797D84",
"[ 	c #3A3A3B",
"} 	c #474748",
"| 	c #555556",
"1 	c #585859",
"2 	c #4B4B4D",
"3 	c #3E3E3F",
"4 	c #2A2A2C",
"5 	c #1F2021",
"6 	c #131313",
"7 	c #404041",
"8 	c #79797A",
"9 	c #808081",
"0 	c #636364",
"a 	c #464647",
"b 	c #383839",
"c 	c #303031",
"d 	c #2B2B2C",
"e 	c #202021",
"f 	c #7A7E85",
"g 	c #424243",
"h 	c #5E5E5F",
"i 	c #868687",
"j 	c #8D8D8E",
"k 	c #6C6C6D",
"l 	c #49494A",
"m 	c #39393A",
"n 	c #303032",
"o 	c #2B2B2D",
"p 	c #979CA3",
"q 	c #121212",
"r 	c #797E84",
"s 	c #474749",
"t 	c #515152",
"u 	c #6B6B6C",
"v 	c #717172",
"w 	c #59595A",
"x 	c #434344",
"y 	c #373738",
"z 	c #9A9FA7",
"A 	c #181818",
"B 	c #464648",
"C 	c #4A4A4B",
"D 	c #4C4C4D",
"E 	c #444445",
"F 	c #3A3A3C",
"G 	c #333335",
"H 	c #2E2E2F",
"I 	c #2A2A2B",
"J 	c #1F1F20",
"K 	c #989CA4",
"L 	c #7B7F85",
"M 	c #434345",
"N 	c #545456",
"O 	c #373739",
"P 	c #2E2E30",
"Q 	c #282829",
"R 	c #1E1E20",
"S 	c #111111",
"T 	c #83868D",
"U 	c #393A3C",
"V 	c #3A3B3D",
"W 	c #494A4C",
"X 	c #3D3E40",
"Y 	c #38393B",
"Z 	c #363739",
"` 	c #343537",
" .	c #333436",
"..	c #313234",
"+.	c #2E2F31",
"@.	c #979CA4",
"#.	c #8D9197",
"$.	c #909499",
"%.	c #8E9197",
"&.	c #8B8F94",
"*.	c #878C91",
"=.	c #8A8E94",
"-.	c #888C91",
";.	c #86898E",
">.	c #82868B",
",.	c #7E8288",
"'.	c #81848A",
").	c #7C7F84",
"!.	c #101010",
"                                                                ",
"                                                                ",
"                                                                ",
"                                                                ",
"                                                                ",
"                                                                ",
"        . . + + @ @ # # # # $ $ % % & & * * = = - - ; ;         ",
"        . . + + @ @ # # # # $ $ % % & & * * = = - - ; ;         ",
"        > > , , ' ' ) ) ! ! ~ ~ { { ] ] ^ ^ / / ( ( _ _ : :     ",
"        > > , , ' ' ) ) ! ! ~ ~ { { ] ] ^ ^ / / ( ( _ _ : :     ",
"        < < [ [ } } | | 1 1 2 2 3 3 ! ! ~ ~ 4 4 5 5 _ _ 6 6     ",
"        < < [ [ } } | | 1 1 2 2 3 3 ! ! ~ ~ 4 4 5 5 _ _ 6 6     ",
"        < < 7 7 1 1 8 8 9 9 0 0 a a b b c c d d e e _ _ 6 6     ",
"        < < 7 7 1 1 8 8 9 9 0 0 a a b b c c d d e e _ _ 6 6     ",
"        f f g g h h i i j j k k l l m m n n o o e e p p q q     ",
"        f f g g h h i i j j k k l l m m n n o o e e p p q q     ",
"        r r s s t t u u v v w w x x y y ' ' d d e e z z A A     ",
"        r r s s t t u u v v w w x x y y ' ' d d e e z z A A     ",
"        < < B B v v C C D D E E F F G G H H I I J J K K 6 6     ",
"        < < B B v v C C D D E E F F G G H H I I J J K K 6 6     ",
"        L L D D M M N N g g O O G G P P d d Q Q R R p p S S     ",
"        L L D D M M N N g g O O G G P P d d Q Q R R p p S S     ",
"        T T U U V V W W X X Y Y Z Z ` `  . .....+.+.@.@.q q     ",
"        T T U U V V W W X X Y Y Z Z ` `  . .....+.+.@.@.q q     ",
"        #.#.$.$.%.%.&.&.*.*.=.=.-.-.;.;.>.>.,.,.'.'.).).!.!.    ",
"        #.#.$.$.%.%.&.&.*.*.=.=.-.-.;.;.>.>.,.,.'.'.).).!.!.    ",
"                                                                ",
"                                                                ",
"                                                                ",
"                                                                ",
"                                                                ",
"                                                                "};
